<svg width="8" height="14" viewBox="0 0 8 14" fill="none" xmlns="http://www.w3.org/2000/svg">
<path d="M6.76825 6.64014L7.41904 7.39939C7.64069 7.20941 7.76825 6.93206 7.76825 6.64014C7.76825 6.34821 7.64069 6.07086 7.41904 5.88088L6.76825 6.64014ZM3.26825 3.64014L2.50003 4.28032L2.55375 4.34478L2.61746 4.39939L3.26825 3.64014ZM3.26825 9.64014L2.61746 8.88088C2.57506 8.91722 2.53578 8.95705 2.50003 8.99995L3.26825 9.64014ZM6.76825 6.64014L7.41904 5.88088L3.91904 2.88088L3.26825 3.64014L2.61746 4.39939L6.11746 7.39939L6.76825 6.64014ZM3.26825 3.64014L4.03647 2.99995L1.53647 -4.76837e-05L0.76825 0.640137L2.82526e-05 1.28032L2.50003 4.28032L3.26825 3.64014ZM0.76825 12.6401L1.53647 13.2803L4.03647 10.2803L3.26825 9.64014L2.50003 8.99995L2.82526e-05 12L0.76825 12.6401ZM3.26825 9.64014L3.91904 10.3994L7.41904 7.39939L6.76825 6.64014L6.11746 5.88088L2.61746 8.88088L3.26825 9.64014Z" fill="white"/>
</svg>
