<svg width="67" height="67" viewBox="0 0 67 67" fill="none" xmlns="http://www.w3.org/2000/svg">
<g clip-path="url(#clip0_506_524)">
<path d="M53.0865 36.2019L60.763 12.1738L53.0865 9.72163V4.74254H37.5029L22.6588 0L21.1431 4.74254H13.0848V29.968L5.4082 53.9988L13.0848 56.451V61.4293H28.6693L43.5124 66.1708L45.0278 61.4293H53.0865V36.2019ZM57.8986 13.6512L53.0865 28.7136V12.1139L57.8986 13.6512ZM24.1359 2.86436L30.0144 4.74254H23.5357L24.1359 2.86436ZM8.27256 52.5214L13.0848 37.4573V54.0587L8.27256 52.5214ZM42.0353 63.3066L36.1588 61.4293H42.6353L42.0353 63.3066ZM50.8076 59.1503H15.3638V7.02151H50.8076V59.1503Z" fill="white"/>
<path d="M46.7482 11.9969H19.665V14.2759H46.7482V11.9969Z" fill="white"/>
<path d="M46.7482 17.6967H19.665V19.9756H46.7482V17.6967Z" fill="white"/>
<path d="M46.7482 23.3966H19.665V25.6756H46.7482V23.3966Z" fill="white"/>
<path d="M46.7482 34.7964H19.665V37.0754H46.7482V34.7964Z" fill="white"/>
<path d="M46.506 46.196H19.4229V48.475H46.506V46.196Z" fill="white"/>
<path d="M46.506 40.4962H19.4229V42.7752H46.506V40.4962Z" fill="white"/>
<path d="M46.506 29.0963H19.4229V31.3753H46.506V29.0963Z" fill="white"/>
<path d="M46.7482 51.8959H19.665V54.1748H46.7482V51.8959Z" fill="white"/>
</g>
<defs>
<clipPath id="clip0_506_524">
<rect width="66.1708" height="66.1708" fill="white"/>
</clipPath>
</defs>
</svg>
