<svg width="27" height="28" viewBox="0 0 27 28" fill="none" xmlns="http://www.w3.org/2000/svg">
<path d="M5.33333 22.6667C4.95556 22.6667 4.63889 22.5389 4.38333 22.2833C4.12778 22.0278 4 21.7111 4 21.3333C4 20.9556 4.12778 20.6389 4.38333 20.3833C4.63889 20.1278 4.95556 20 5.33333 20C5.71111 20 6.02778 20.1278 6.28333 20.3833C6.53889 20.6389 6.66667 20.9556 6.66667 21.3333C6.66667 21.7111 6.53889 22.0278 6.28333 22.2833C6.02778 22.5389 5.71111 22.6667 5.33333 22.6667ZM21.3333 22.6667C20.9556 22.6667 20.6389 22.5389 20.3833 22.2833C20.1278 22.0278 20 21.7111 20 21.3333C20 20.9556 20.1278 20.6389 20.3833 20.3833C20.6389 20.1278 20.9556 20 21.3333 20C21.7111 20 22.0278 20.1278 22.2833 20.3833C22.5389 20.6389 22.6667 20.9556 22.6667 21.3333C22.6667 21.7111 22.5389 22.0278 22.2833 22.2833C22.0278 22.5389 21.7111 22.6667 21.3333 22.6667ZM9.33333 28C8.95555 28 8.63889 27.8722 8.38333 27.6167C8.12778 27.3611 8 27.0444 8 26.6667C8 26.2889 8.12778 25.9722 8.38333 25.7167C8.63889 25.4611 8.95555 25.3333 9.33333 25.3333C9.71111 25.3333 10.0278 25.4611 10.2833 25.7167C10.5389 25.9722 10.6667 26.2889 10.6667 26.6667C10.6667 27.0444 10.5389 27.3611 10.2833 27.6167C10.0278 27.8722 9.71111 28 9.33333 28ZM13.3333 22.6667C12.9556 22.6667 12.6389 22.5389 12.3833 22.2833C12.1278 22.0278 12 21.7111 12 21.3333C12 20.9556 12.1278 20.6389 12.3833 20.3833C12.6389 20.1278 12.9556 20 13.3333 20C13.7111 20 14.0278 20.1278 14.2833 20.3833C14.5389 20.6389 14.6667 20.9556 14.6667 21.3333C14.6667 21.7111 14.5389 22.0278 14.2833 22.2833C14.0278 22.5389 13.7111 22.6667 13.3333 22.6667ZM17.3333 28C16.9556 28 16.6389 27.8722 16.3833 27.6167C16.1278 27.3611 16 27.0444 16 26.6667C16 26.2889 16.1278 25.9722 16.3833 25.7167C16.6389 25.4611 16.9556 25.3333 17.3333 25.3333C17.7111 25.3333 18.0278 25.4611 18.2833 25.7167C18.5389 25.9722 18.6667 26.2889 18.6667 26.6667C18.6667 27.0444 18.5389 27.3611 18.2833 27.6167C18.0278 27.8722 17.7111 28 17.3333 28ZM7.33333 18.6667C5.31111 18.6667 3.58333 17.95 2.15 16.5167C0.716667 15.0833 0 13.3556 0 11.3333C0 9.48889 0.611111 7.87778 1.83333 6.5C3.05556 5.12222 4.56667 4.31111 6.36667 4.06667C7.07778 2.8 8.05 1.80556 9.28333 1.08333C10.5167 0.361111 11.8667 0 13.3333 0C15.3333 0 17.0722 0.638889 18.55 1.91667C20.0278 3.19444 20.9222 4.78889 21.2333 6.7C22.7667 6.83333 24.0556 7.46667 25.1 8.6C26.1444 9.73333 26.6667 11.0889 26.6667 12.6667C26.6667 14.3333 26.0833 15.75 24.9167 16.9167C23.75 18.0833 22.3333 18.6667 20.6667 18.6667H7.33333ZM7.33333 16H20.6667C21.6 16 22.3889 15.6778 23.0333 15.0333C23.6778 14.3889 24 13.6 24 12.6667C24 11.7333 23.6778 10.9444 23.0333 10.3C22.3889 9.65556 21.6 9.33333 20.6667 9.33333H18.6667V8C18.6667 6.53333 18.1444 5.27778 17.1 4.23333C16.0556 3.18889 14.8 2.66667 13.3333 2.66667C12.2667 2.66667 11.2944 2.95556 10.4167 3.53333C9.53889 4.11111 8.87778 4.88889 8.43333 5.86667L8.1 6.66667H7.26667C6 6.71111 4.91667 7.18333 4.01667 8.08333C3.11667 8.98333 2.66667 10.0667 2.66667 11.3333C2.66667 12.6222 3.12222 13.7222 4.03333 14.6333C4.94444 15.5444 6.04444 16 7.33333 16Z" fill="#0254AD"/>
</svg>
